<?xml version="1.0" encoding="utf-8" standalone="no"?>
<!DOCTYPE svg PUBLIC "-//W3C//DTD SVG 1.1//EN"
  "http://www.w3.org/Graphics/SVG/1.1/DTD/svg11.dtd">
<!-- Created with matplotlib (http://matplotlib.org/) -->
<svg height="514pt" version="1.1" viewBox="0 0 748 514" width="748pt" xmlns="http://www.w3.org/2000/svg" xmlns:xlink="http://www.w3.org/1999/xlink">
 <defs>
  <style type="text/css">
*{stroke-linecap:butt;stroke-linejoin:round;}
  </style>
 </defs>
 <g id="figure_1">
  <g id="patch_1">
   <path d="M 0 514.8 
L 748.8 514.8 
L 748.8 0 
L 0 0 
z
" style="fill:#ffffff;"/>
  </g>
  <g id="axes_1">
   <g id="patch_2">
    <path d="M 93.6 450.45 
L 673.92 450.45 
L 673.92 61.776 
L 93.6 61.776 
z
" style="fill:#ffffff;"/>
   </g>
   <g id="matplotlib.axis_1">
    <g id="xtick_1">
     <g id="line2d_1">
      <defs>
       <path d="M 0 0 
L 0 3.5 
" id="m46316e46cf" style="stroke:#000000;stroke-width:1.3;"/>
      </defs>
      <g>
       <use style="stroke:#000000;stroke-width:1.3;" x="119.978182" xlink:href="#m46316e46cf" y="450.45"/>
      </g>
     </g>
     <g id="text_1">
      <!-- 0 -->
      <defs>
       <path d="M 31.78125 66.40625 
Q 24.171875 66.40625 20.328125 58.90625 
Q 16.5 51.421875 16.5 36.375 
Q 16.5 21.390625 20.328125 13.890625 
Q 24.171875 6.390625 31.78125 6.390625 
Q 39.453125 6.390625 43.28125 13.890625 
Q 47.125 21.390625 47.125 36.375 
Q 47.125 51.421875 43.28125 58.90625 
Q 39.453125 66.40625 31.78125 66.40625 
z
M 31.78125 74.21875 
Q 44.046875 74.21875 50.515625 64.515625 
Q 56.984375 54.828125 56.984375 36.375 
Q 56.984375 17.96875 50.515625 8.265625 
Q 44.046875 -1.421875 31.78125 -1.421875 
Q 19.53125 -1.421875 13.0625 8.265625 
Q 6.59375 17.96875 6.59375 36.375 
Q 6.59375 54.828125 13.0625 64.515625 
Q 19.53125 74.21875 31.78125 74.21875 
z
" id="DejaVuSans-30"/>
      </defs>
      <g transform="translate(115.842557 472.927969)scale(0.13 -0.13)">
       <use xlink:href="#DejaVuSans-30"/>
      </g>
     </g>
    </g>
    <g id="xtick_2">
     <g id="line2d_2">
      <g>
       <use style="stroke:#000000;stroke-width:1.3;" x="188.04459" xlink:href="#m46316e46cf" y="450.45"/>
      </g>
     </g>
     <g id="text_2">
      <!-- 100 -->
      <defs>
       <path d="M 12.40625 8.296875 
L 28.515625 8.296875 
L 28.515625 63.921875 
L 10.984375 60.40625 
L 10.984375 69.390625 
L 28.421875 72.90625 
L 38.28125 72.90625 
L 38.28125 8.296875 
L 54.390625 8.296875 
L 54.390625 0 
L 12.40625 0 
z
" id="DejaVuSans-31"/>
      </defs>
      <g transform="translate(175.637715 472.927969)scale(0.13 -0.13)">
       <use xlink:href="#DejaVuSans-31"/>
       <use x="63.623047" xlink:href="#DejaVuSans-30"/>
       <use x="127.246094" xlink:href="#DejaVuSans-30"/>
      </g>
     </g>
    </g>
    <g id="xtick_3">
     <g id="line2d_3">
      <g>
       <use style="stroke:#000000;stroke-width:1.3;" x="256.110998" xlink:href="#m46316e46cf" y="450.45"/>
      </g>
     </g>
     <g id="text_3">
      <!-- 200 -->
      <defs>
       <path d="M 19.1875 8.296875 
L 53.609375 8.296875 
L 53.609375 0 
L 7.328125 0 
L 7.328125 8.296875 
Q 12.9375 14.109375 22.625 23.890625 
Q 32.328125 33.6875 34.8125 36.53125 
Q 39.546875 41.84375 41.421875 45.53125 
Q 43.3125 49.21875 43.3125 52.78125 
Q 43.3125 58.59375 39.234375 62.25 
Q 35.15625 65.921875 28.609375 65.921875 
Q 23.96875 65.921875 18.8125 64.3125 
Q 13.671875 62.703125 7.8125 59.421875 
L 7.8125 69.390625 
Q 13.765625 71.78125 18.9375 73 
Q 24.125 74.21875 28.421875 74.21875 
Q 39.75 74.21875 46.484375 68.546875 
Q 53.21875 62.890625 53.21875 53.421875 
Q 53.21875 48.921875 51.53125 44.890625 
Q 49.859375 40.875 45.40625 35.40625 
Q 44.1875 33.984375 37.640625 27.21875 
Q 31.109375 20.453125 19.1875 8.296875 
z
" id="DejaVuSans-32"/>
      </defs>
      <g transform="translate(243.704123 472.927969)scale(0.13 -0.13)">
       <use xlink:href="#DejaVuSans-32"/>
       <use x="63.623047" xlink:href="#DejaVuSans-30"/>
       <use x="127.246094" xlink:href="#DejaVuSans-30"/>
      </g>
     </g>
    </g>
    <g id="xtick_4">
     <g id="line2d_4">
      <g>
       <use style="stroke:#000000;stroke-width:1.3;" x="324.177407" xlink:href="#m46316e46cf" y="450.45"/>
      </g>
     </g>
     <g id="text_4">
      <!-- 300 -->
      <defs>
       <path d="M 40.578125 39.3125 
Q 47.65625 37.796875 51.625 33 
Q 55.609375 28.21875 55.609375 21.1875 
Q 55.609375 10.40625 48.1875 4.484375 
Q 40.765625 -1.421875 27.09375 -1.421875 
Q 22.515625 -1.421875 17.65625 -0.515625 
Q 12.796875 0.390625 7.625 2.203125 
L 7.625 11.71875 
Q 11.71875 9.328125 16.59375 8.109375 
Q 21.484375 6.890625 26.8125 6.890625 
Q 36.078125 6.890625 40.9375 10.546875 
Q 45.796875 14.203125 45.796875 21.1875 
Q 45.796875 27.640625 41.28125 31.265625 
Q 36.765625 34.90625 28.71875 34.90625 
L 20.21875 34.90625 
L 20.21875 43.015625 
L 29.109375 43.015625 
Q 36.375 43.015625 40.234375 45.921875 
Q 44.09375 48.828125 44.09375 54.296875 
Q 44.09375 59.90625 40.109375 62.90625 
Q 36.140625 65.921875 28.71875 65.921875 
Q 24.65625 65.921875 20.015625 65.03125 
Q 15.375 64.15625 9.8125 62.3125 
L 9.8125 71.09375 
Q 15.4375 72.65625 20.34375 73.4375 
Q 25.25 74.21875 29.59375 74.21875 
Q 40.828125 74.21875 47.359375 69.109375 
Q 53.90625 64.015625 53.90625 55.328125 
Q 53.90625 49.265625 50.4375 45.09375 
Q 46.96875 40.921875 40.578125 39.3125 
z
" id="DejaVuSans-33"/>
      </defs>
      <g transform="translate(311.770532 472.927969)scale(0.13 -0.13)">
       <use xlink:href="#DejaVuSans-33"/>
       <use x="63.623047" xlink:href="#DejaVuSans-30"/>
       <use x="127.246094" xlink:href="#DejaVuSans-30"/>
      </g>
     </g>
    </g>
    <g id="xtick_5">
     <g id="line2d_5">
      <g>
       <use style="stroke:#000000;stroke-width:1.3;" x="392.243815" xlink:href="#m46316e46cf" y="450.45"/>
      </g>
     </g>
     <g id="text_5">
      <!-- 400 -->
      <defs>
       <path d="M 37.796875 64.3125 
L 12.890625 25.390625 
L 37.796875 25.390625 
z
M 35.203125 72.90625 
L 47.609375 72.90625 
L 47.609375 25.390625 
L 58.015625 25.390625 
L 58.015625 17.1875 
L 47.609375 17.1875 
L 47.609375 0 
L 37.796875 0 
L 37.796875 17.1875 
L 4.890625 17.1875 
L 4.890625 26.703125 
z
" id="DejaVuSans-34"/>
      </defs>
      <g transform="translate(379.83694 472.927969)scale(0.13 -0.13)">
       <use xlink:href="#DejaVuSans-34"/>
       <use x="63.623047" xlink:href="#DejaVuSans-30"/>
       <use x="127.246094" xlink:href="#DejaVuSans-30"/>
      </g>
     </g>
    </g>
    <g id="xtick_6">
     <g id="line2d_6">
      <g>
       <use style="stroke:#000000;stroke-width:1.3;" x="460.310224" xlink:href="#m46316e46cf" y="450.45"/>
      </g>
     </g>
     <g id="text_6">
      <!-- 500 -->
      <defs>
       <path d="M 10.796875 72.90625 
L 49.515625 72.90625 
L 49.515625 64.59375 
L 19.828125 64.59375 
L 19.828125 46.734375 
Q 21.96875 47.46875 24.109375 47.828125 
Q 26.265625 48.1875 28.421875 48.1875 
Q 40.625 48.1875 47.75 41.5 
Q 54.890625 34.8125 54.890625 23.390625 
Q 54.890625 11.625 47.5625 5.09375 
Q 40.234375 -1.421875 26.90625 -1.421875 
Q 22.3125 -1.421875 17.546875 -0.640625 
Q 12.796875 0.140625 7.71875 1.703125 
L 7.71875 11.625 
Q 12.109375 9.234375 16.796875 8.0625 
Q 21.484375 6.890625 26.703125 6.890625 
Q 35.15625 6.890625 40.078125 11.328125 
Q 45.015625 15.765625 45.015625 23.390625 
Q 45.015625 31 40.078125 35.4375 
Q 35.15625 39.890625 26.703125 39.890625 
Q 22.75 39.890625 18.8125 39.015625 
Q 14.890625 38.140625 10.796875 36.28125 
z
" id="DejaVuSans-35"/>
      </defs>
      <g transform="translate(447.903349 472.927969)scale(0.13 -0.13)">
       <use xlink:href="#DejaVuSans-35"/>
       <use x="63.623047" xlink:href="#DejaVuSans-30"/>
       <use x="127.246094" xlink:href="#DejaVuSans-30"/>
      </g>
     </g>
    </g>
    <g id="xtick_7">
     <g id="line2d_7">
      <g>
       <use style="stroke:#000000;stroke-width:1.3;" x="528.376632" xlink:href="#m46316e46cf" y="450.45"/>
      </g>
     </g>
     <g id="text_7">
      <!-- 600 -->
      <defs>
       <path d="M 33.015625 40.375 
Q 26.375 40.375 22.484375 35.828125 
Q 18.609375 31.296875 18.609375 23.390625 
Q 18.609375 15.53125 22.484375 10.953125 
Q 26.375 6.390625 33.015625 6.390625 
Q 39.65625 6.390625 43.53125 10.953125 
Q 47.40625 15.53125 47.40625 23.390625 
Q 47.40625 31.296875 43.53125 35.828125 
Q 39.65625 40.375 33.015625 40.375 
z
M 52.59375 71.296875 
L 52.59375 62.3125 
Q 48.875 64.0625 45.09375 64.984375 
Q 41.3125 65.921875 37.59375 65.921875 
Q 27.828125 65.921875 22.671875 59.328125 
Q 17.53125 52.734375 16.796875 39.40625 
Q 19.671875 43.65625 24.015625 45.921875 
Q 28.375 48.1875 33.59375 48.1875 
Q 44.578125 48.1875 50.953125 41.515625 
Q 57.328125 34.859375 57.328125 23.390625 
Q 57.328125 12.15625 50.6875 5.359375 
Q 44.046875 -1.421875 33.015625 -1.421875 
Q 20.359375 -1.421875 13.671875 8.265625 
Q 6.984375 17.96875 6.984375 36.375 
Q 6.984375 53.65625 15.1875 63.9375 
Q 23.390625 74.21875 37.203125 74.21875 
Q 40.921875 74.21875 44.703125 73.484375 
Q 48.484375 72.75 52.59375 71.296875 
z
" id="DejaVuSans-36"/>
      </defs>
      <g transform="translate(515.969757 472.927969)scale(0.13 -0.13)">
       <use xlink:href="#DejaVuSans-36"/>
       <use x="63.623047" xlink:href="#DejaVuSans-30"/>
       <use x="127.246094" xlink:href="#DejaVuSans-30"/>
      </g>
     </g>
    </g>
    <g id="xtick_8">
     <g id="line2d_8">
      <g>
       <use style="stroke:#000000;stroke-width:1.3;" x="596.44304" xlink:href="#m46316e46cf" y="450.45"/>
      </g>
     </g>
     <g id="text_8">
      <!-- 700 -->
      <defs>
       <path d="M 8.203125 72.90625 
L 55.078125 72.90625 
L 55.078125 68.703125 
L 28.609375 0 
L 18.3125 0 
L 43.21875 64.59375 
L 8.203125 64.59375 
z
" id="DejaVuSans-37"/>
      </defs>
      <g transform="translate(584.036165 472.927969)scale(0.13 -0.13)">
       <use xlink:href="#DejaVuSans-37"/>
       <use x="63.623047" xlink:href="#DejaVuSans-30"/>
       <use x="127.246094" xlink:href="#DejaVuSans-30"/>
      </g>
     </g>
    </g>
    <g id="xtick_9">
     <g id="line2d_9">
      <g>
       <use style="stroke:#000000;stroke-width:1.3;" x="664.509449" xlink:href="#m46316e46cf" y="450.45"/>
      </g>
     </g>
     <g id="text_9">
      <!-- 800 -->
      <defs>
       <path d="M 31.78125 34.625 
Q 24.75 34.625 20.71875 30.859375 
Q 16.703125 27.09375 16.703125 20.515625 
Q 16.703125 13.921875 20.71875 10.15625 
Q 24.75 6.390625 31.78125 6.390625 
Q 38.8125 6.390625 42.859375 10.171875 
Q 46.921875 13.96875 46.921875 20.515625 
Q 46.921875 27.09375 42.890625 30.859375 
Q 38.875 34.625 31.78125 34.625 
z
M 21.921875 38.8125 
Q 15.578125 40.375 12.03125 44.71875 
Q 8.5 49.078125 8.5 55.328125 
Q 8.5 64.0625 14.71875 69.140625 
Q 20.953125 74.21875 31.78125 74.21875 
Q 42.671875 74.21875 48.875 69.140625 
Q 55.078125 64.0625 55.078125 55.328125 
Q 55.078125 49.078125 51.53125 44.71875 
Q 48 40.375 41.703125 38.8125 
Q 48.828125 37.15625 52.796875 32.3125 
Q 56.78125 27.484375 56.78125 20.515625 
Q 56.78125 9.90625 50.3125 4.234375 
Q 43.84375 -1.421875 31.78125 -1.421875 
Q 19.734375 -1.421875 13.25 4.234375 
Q 6.78125 9.90625 6.78125 20.515625 
Q 6.78125 27.484375 10.78125 32.3125 
Q 14.796875 37.15625 21.921875 38.8125 
z
M 18.3125 54.390625 
Q 18.3125 48.734375 21.84375 45.5625 
Q 25.390625 42.390625 31.78125 42.390625 
Q 38.140625 42.390625 41.71875 45.5625 
Q 45.3125 48.734375 45.3125 54.390625 
Q 45.3125 60.0625 41.71875 63.234375 
Q 38.140625 66.40625 31.78125 66.40625 
Q 25.390625 66.40625 21.84375 63.234375 
Q 18.3125 60.0625 18.3125 54.390625 
z
" id="DejaVuSans-38"/>
      </defs>
      <g transform="translate(652.102574 472.927969)scale(0.13 -0.13)">
       <use xlink:href="#DejaVuSans-38"/>
       <use x="63.623047" xlink:href="#DejaVuSans-30"/>
       <use x="127.246094" xlink:href="#DejaVuSans-30"/>
      </g>
     </g>
    </g>
    <g id="text_10">
     <!-- CPU time (s) -->
     <defs>
      <path d="M 64.40625 67.28125 
L 64.40625 56.890625 
Q 59.421875 61.53125 53.78125 63.8125 
Q 48.140625 66.109375 41.796875 66.109375 
Q 29.296875 66.109375 22.65625 58.46875 
Q 16.015625 50.828125 16.015625 36.375 
Q 16.015625 21.96875 22.65625 14.328125 
Q 29.296875 6.6875 41.796875 6.6875 
Q 48.140625 6.6875 53.78125 8.984375 
Q 59.421875 11.28125 64.40625 15.921875 
L 64.40625 5.609375 
Q 59.234375 2.09375 53.4375 0.328125 
Q 47.65625 -1.421875 41.21875 -1.421875 
Q 24.65625 -1.421875 15.125 8.703125 
Q 5.609375 18.84375 5.609375 36.375 
Q 5.609375 53.953125 15.125 64.078125 
Q 24.65625 74.21875 41.21875 74.21875 
Q 47.75 74.21875 53.53125 72.484375 
Q 59.328125 70.75 64.40625 67.28125 
z
" id="DejaVuSans-43"/>
      <path d="M 19.671875 64.796875 
L 19.671875 37.40625 
L 32.078125 37.40625 
Q 38.96875 37.40625 42.71875 40.96875 
Q 46.484375 44.53125 46.484375 51.125 
Q 46.484375 57.671875 42.71875 61.234375 
Q 38.96875 64.796875 32.078125 64.796875 
z
M 9.8125 72.90625 
L 32.078125 72.90625 
Q 44.34375 72.90625 50.609375 67.359375 
Q 56.890625 61.8125 56.890625 51.125 
Q 56.890625 40.328125 50.609375 34.8125 
Q 44.34375 29.296875 32.078125 29.296875 
L 19.671875 29.296875 
L 19.671875 0 
L 9.8125 0 
z
" id="DejaVuSans-50"/>
      <path d="M 8.6875 72.90625 
L 18.609375 72.90625 
L 18.609375 28.609375 
Q 18.609375 16.890625 22.84375 11.734375 
Q 27.09375 6.59375 36.625 6.59375 
Q 46.09375 6.59375 50.34375 11.734375 
Q 54.59375 16.890625 54.59375 28.609375 
L 54.59375 72.90625 
L 64.5 72.90625 
L 64.5 27.390625 
Q 64.5 13.140625 57.4375 5.859375 
Q 50.390625 -1.421875 36.625 -1.421875 
Q 22.796875 -1.421875 15.734375 5.859375 
Q 8.6875 13.140625 8.6875 27.390625 
z
" id="DejaVuSans-55"/>
      <path id="DejaVuSans-20"/>
      <path d="M 18.3125 70.21875 
L 18.3125 54.6875 
L 36.8125 54.6875 
L 36.8125 47.703125 
L 18.3125 47.703125 
L 18.3125 18.015625 
Q 18.3125 11.328125 20.140625 9.421875 
Q 21.96875 7.515625 27.59375 7.515625 
L 36.8125 7.515625 
L 36.8125 0 
L 27.59375 0 
Q 17.1875 0 13.234375 3.875 
Q 9.28125 7.765625 9.28125 18.015625 
L 9.28125 47.703125 
L 2.6875 47.703125 
L 2.6875 54.6875 
L 9.28125 54.6875 
L 9.28125 70.21875 
z
" id="DejaVuSans-74"/>
      <path d="M 9.421875 54.6875 
L 18.40625 54.6875 
L 18.40625 0 
L 9.421875 0 
z
M 9.421875 75.984375 
L 18.40625 75.984375 
L 18.40625 64.59375 
L 9.421875 64.59375 
z
" id="DejaVuSans-69"/>
      <path d="M 52 44.1875 
Q 55.375 50.25 60.0625 53.125 
Q 64.75 56 71.09375 56 
Q 79.640625 56 84.28125 50.015625 
Q 88.921875 44.046875 88.921875 33.015625 
L 88.921875 0 
L 79.890625 0 
L 79.890625 32.71875 
Q 79.890625 40.578125 77.09375 44.375 
Q 74.3125 48.1875 68.609375 48.1875 
Q 61.625 48.1875 57.5625 43.546875 
Q 53.515625 38.921875 53.515625 30.90625 
L 53.515625 0 
L 44.484375 0 
L 44.484375 32.71875 
Q 44.484375 40.625 41.703125 44.40625 
Q 38.921875 48.1875 33.109375 48.1875 
Q 26.21875 48.1875 22.15625 43.53125 
Q 18.109375 38.875 18.109375 30.90625 
L 18.109375 0 
L 9.078125 0 
L 9.078125 54.6875 
L 18.109375 54.6875 
L 18.109375 46.1875 
Q 21.1875 51.21875 25.484375 53.609375 
Q 29.78125 56 35.6875 56 
Q 41.65625 56 45.828125 52.96875 
Q 50 49.953125 52 44.1875 
z
" id="DejaVuSans-6d"/>
      <path d="M 56.203125 29.59375 
L 56.203125 25.203125 
L 14.890625 25.203125 
Q 15.484375 15.921875 20.484375 11.0625 
Q 25.484375 6.203125 34.421875 6.203125 
Q 39.59375 6.203125 44.453125 7.46875 
Q 49.3125 8.734375 54.109375 11.28125 
L 54.109375 2.78125 
Q 49.265625 0.734375 44.1875 -0.34375 
Q 39.109375 -1.421875 33.890625 -1.421875 
Q 20.796875 -1.421875 13.15625 6.1875 
Q 5.515625 13.8125 5.515625 26.8125 
Q 5.515625 40.234375 12.765625 48.109375 
Q 20.015625 56 32.328125 56 
Q 43.359375 56 49.78125 48.890625 
Q 56.203125 41.796875 56.203125 29.59375 
z
M 47.21875 32.234375 
Q 47.125 39.59375 43.09375 43.984375 
Q 39.0625 48.390625 32.421875 48.390625 
Q 24.90625 48.390625 20.390625 44.140625 
Q 15.875 39.890625 15.1875 32.171875 
z
" id="DejaVuSans-65"/>
      <path d="M 31 75.875 
Q 24.46875 64.65625 21.28125 53.65625 
Q 18.109375 42.671875 18.109375 31.390625 
Q 18.109375 20.125 21.3125 9.0625 
Q 24.515625 -2 31 -13.1875 
L 23.1875 -13.1875 
Q 15.875 -1.703125 12.234375 9.375 
Q 8.59375 20.453125 8.59375 31.390625 
Q 8.59375 42.28125 12.203125 53.3125 
Q 15.828125 64.359375 23.1875 75.875 
z
" id="DejaVuSans-28"/>
      <path d="M 44.28125 53.078125 
L 44.28125 44.578125 
Q 40.484375 46.53125 36.375 47.5 
Q 32.28125 48.484375 27.875 48.484375 
Q 21.1875 48.484375 17.84375 46.4375 
Q 14.5 44.390625 14.5 40.28125 
Q 14.5 37.15625 16.890625 35.375 
Q 19.28125 33.59375 26.515625 31.984375 
L 29.59375 31.296875 
Q 39.15625 29.25 43.1875 25.515625 
Q 47.21875 21.78125 47.21875 15.09375 
Q 47.21875 7.46875 41.1875 3.015625 
Q 35.15625 -1.421875 24.609375 -1.421875 
Q 20.21875 -1.421875 15.453125 -0.5625 
Q 10.6875 0.296875 5.421875 2 
L 5.421875 11.28125 
Q 10.40625 8.6875 15.234375 7.390625 
Q 20.0625 6.109375 24.8125 6.109375 
Q 31.15625 6.109375 34.5625 8.28125 
Q 37.984375 10.453125 37.984375 14.40625 
Q 37.984375 18.0625 35.515625 20.015625 
Q 33.0625 21.96875 24.703125 23.78125 
L 21.578125 24.515625 
Q 13.234375 26.265625 9.515625 29.90625 
Q 5.8125 33.546875 5.8125 39.890625 
Q 5.8125 47.609375 11.28125 51.796875 
Q 16.75 56 26.8125 56 
Q 31.78125 56 36.171875 55.265625 
Q 40.578125 54.546875 44.28125 53.078125 
z
" id="DejaVuSans-73"/>
      <path d="M 8.015625 75.875 
L 15.828125 75.875 
Q 23.140625 64.359375 26.78125 53.3125 
Q 30.421875 42.28125 30.421875 31.390625 
Q 30.421875 20.453125 26.78125 9.375 
Q 23.140625 -1.703125 15.828125 -13.1875 
L 8.015625 -13.1875 
Q 14.5 -2 17.703125 9.0625 
Q 20.90625 20.125 20.90625 31.390625 
Q 20.90625 42.671875 17.703125 53.65625 
Q 14.5 64.65625 8.015625 75.875 
z
" id="DejaVuSans-29"/>
     </defs>
     <g transform="translate(339.221086 490.497328)scale(0.143 -0.143)">
      <use xlink:href="#DejaVuSans-43"/>
      <use x="69.824219" xlink:href="#DejaVuSans-50"/>
      <use x="130.126953" xlink:href="#DejaVuSans-55"/>
      <use x="203.320312" xlink:href="#DejaVuSans-20"/>
      <use x="235.107422" xlink:href="#DejaVuSans-74"/>
      <use x="274.316406" xlink:href="#DejaVuSans-69"/>
      <use x="302.099609" xlink:href="#DejaVuSans-6d"/>
      <use x="399.511719" xlink:href="#DejaVuSans-65"/>
      <use x="461.035156" xlink:href="#DejaVuSans-20"/>
      <use x="492.822266" xlink:href="#DejaVuSans-28"/>
      <use x="531.835938" xlink:href="#DejaVuSans-73"/>
      <use x="583.935547" xlink:href="#DejaVuSans-29"/>
     </g>
    </g>
   </g>
   <g id="matplotlib.axis_2">
    <g id="ytick_1">
     <g id="line2d_10">
      <defs>
       <path d="M 0 0 
L -3.5 0 
" id="m8a64e6ddf6" style="stroke:#000000;stroke-width:1.3;"/>
      </defs>
      <g>
       <use style="stroke:#000000;stroke-width:1.3;" x="93.6" xlink:href="#m8a64e6ddf6" y="337.501387"/>
      </g>
     </g>
     <g id="text_11">
      <!-- $\mathdefault{10^{0}}$ -->
      <g transform="translate(58.12 342.440372)scale(0.13 -0.13)">
       <use transform="translate(0 0.765625)" xlink:href="#DejaVuSans-31"/>
       <use transform="translate(63.623047 0.765625)" xlink:href="#DejaVuSans-30"/>
       <use transform="translate(128.203125 39.046875)scale(0.7)" xlink:href="#DejaVuSans-30"/>
      </g>
     </g>
    </g>
    <g id="ytick_2">
     <g id="line2d_11">
      <defs>
       <path d="M 0 0 
L -2 0 
" id="m532bbd57a6" style="stroke:#000000;stroke-width:0.65;"/>
      </defs>
      <g>
       <use style="stroke:#000000;stroke-width:0.65;" x="93.6" xlink:href="#m532bbd57a6" y="449.669636"/>
      </g>
     </g>
    </g>
    <g id="ytick_3">
     <g id="line2d_12">
      <g>
       <use style="stroke:#000000;stroke-width:0.65;" x="93.6" xlink:href="#m532bbd57a6" y="420.165527"/>
      </g>
     </g>
    </g>
    <g id="ytick_4">
     <g id="line2d_13">
      <g>
       <use style="stroke:#000000;stroke-width:0.65;" x="93.6" xlink:href="#m532bbd57a6" y="395.220159"/>
      </g>
     </g>
    </g>
    <g id="ytick_5">
     <g id="line2d_14">
      <g>
       <use style="stroke:#000000;stroke-width:0.65;" x="93.6" xlink:href="#m532bbd57a6" y="373.611498"/>
      </g>
     </g>
    </g>
    <g id="ytick_6">
     <g id="line2d_15">
      <g>
       <use style="stroke:#000000;stroke-width:0.65;" x="93.6" xlink:href="#m532bbd57a6" y="354.551308"/>
      </g>
     </g>
    </g>
    <g id="ytick_7">
     <g id="line2d_16">
      <g>
       <use style="stroke:#000000;stroke-width:0.65;" x="93.6" xlink:href="#m532bbd57a6" y="225.333139"/>
      </g>
     </g>
    </g>
    <g id="ytick_8">
     <g id="line2d_17">
      <g>
       <use style="stroke:#000000;stroke-width:0.65;" x="93.6" xlink:href="#m532bbd57a6" y="159.718919"/>
      </g>
     </g>
    </g>
    <g id="ytick_9">
     <g id="line2d_18">
      <g>
       <use style="stroke:#000000;stroke-width:0.65;" x="93.6" xlink:href="#m532bbd57a6" y="113.16489"/>
      </g>
     </g>
    </g>
    <g id="ytick_10">
     <g id="line2d_19">
      <g>
       <use style="stroke:#000000;stroke-width:0.65;" x="93.6" xlink:href="#m532bbd57a6" y="77.054779"/>
      </g>
     </g>
    </g>
    <g id="text_12">
     <!-- Log loss -->
     <defs>
      <path d="M 9.8125 72.90625 
L 19.671875 72.90625 
L 19.671875 8.296875 
L 55.171875 8.296875 
L 55.171875 0 
L 9.8125 0 
z
" id="DejaVuSans-4c"/>
      <path d="M 30.609375 48.390625 
Q 23.390625 48.390625 19.1875 42.75 
Q 14.984375 37.109375 14.984375 27.296875 
Q 14.984375 17.484375 19.15625 11.84375 
Q 23.34375 6.203125 30.609375 6.203125 
Q 37.796875 6.203125 41.984375 11.859375 
Q 46.1875 17.53125 46.1875 27.296875 
Q 46.1875 37.015625 41.984375 42.703125 
Q 37.796875 48.390625 30.609375 48.390625 
z
M 30.609375 56 
Q 42.328125 56 49.015625 48.375 
Q 55.71875 40.765625 55.71875 27.296875 
Q 55.71875 13.875 49.015625 6.21875 
Q 42.328125 -1.421875 30.609375 -1.421875 
Q 18.84375 -1.421875 12.171875 6.21875 
Q 5.515625 13.875 5.515625 27.296875 
Q 5.515625 40.765625 12.171875 48.375 
Q 18.84375 56 30.609375 56 
z
" id="DejaVuSans-6f"/>
      <path d="M 45.40625 27.984375 
Q 45.40625 37.75 41.375 43.109375 
Q 37.359375 48.484375 30.078125 48.484375 
Q 22.859375 48.484375 18.828125 43.109375 
Q 14.796875 37.75 14.796875 27.984375 
Q 14.796875 18.265625 18.828125 12.890625 
Q 22.859375 7.515625 30.078125 7.515625 
Q 37.359375 7.515625 41.375 12.890625 
Q 45.40625 18.265625 45.40625 27.984375 
z
M 54.390625 6.78125 
Q 54.390625 -7.171875 48.1875 -13.984375 
Q 42 -20.796875 29.203125 -20.796875 
Q 24.46875 -20.796875 20.265625 -20.09375 
Q 16.0625 -19.390625 12.109375 -17.921875 
L 12.109375 -9.1875 
Q 16.0625 -11.328125 19.921875 -12.34375 
Q 23.78125 -13.375 27.78125 -13.375 
Q 36.625 -13.375 41.015625 -8.765625 
Q 45.40625 -4.15625 45.40625 5.171875 
L 45.40625 9.625 
Q 42.625 4.78125 38.28125 2.390625 
Q 33.9375 0 27.875 0 
Q 17.828125 0 11.671875 7.65625 
Q 5.515625 15.328125 5.515625 27.984375 
Q 5.515625 40.671875 11.671875 48.328125 
Q 17.828125 56 27.875 56 
Q 33.9375 56 38.28125 53.609375 
Q 42.625 51.21875 45.40625 46.390625 
L 45.40625 54.6875 
L 54.390625 54.6875 
z
" id="DejaVuSans-67"/>
      <path d="M 9.421875 75.984375 
L 18.40625 75.984375 
L 18.40625 0 
L 9.421875 0 
z
" id="DejaVuSans-6c"/>
     </defs>
     <g transform="translate(51.146047 285.092844)rotate(-90)scale(0.143 -0.143)">
      <use xlink:href="#DejaVuSans-4c"/>
      <use x="55.697266" xlink:href="#DejaVuSans-6f"/>
      <use x="116.878906" xlink:href="#DejaVuSans-67"/>
      <use x="180.355469" xlink:href="#DejaVuSans-20"/>
      <use x="212.142578" xlink:href="#DejaVuSans-6c"/>
      <use x="239.925781" xlink:href="#DejaVuSans-6f"/>
      <use x="301.107422" xlink:href="#DejaVuSans-73"/>
      <use x="353.207031" xlink:href="#DejaVuSans-73"/>
     </g>
    </g>
   </g>
   <g id="line2d_20">
    <path clip-path="url(#pde3ec7ab0e)" d="M 119.978182 337.501387 
L 121.745827 415.691875 
L 123.506721 427.480069 
L 125.27159 430.047354 
L 127.028841 430.619068 
L 128.786709 402.219122 
L 130.568126 422.753838 
L 132.327998 427.266782 
L 134.100794 431.329498 
L 135.868985 431.310949 
L 137.620348 390.782389 
L 139.380122 431.951165 
L 142.891508 430.916136 
L 144.647532 420.151534 
L 146.409131 431.199849 
L 148.169463 422.90771 
L 149.935241 427.507333 
L 151.697784 423.24277 
L 153.461797 403.596379 
L 155.228121 409.845608 
L 156.979615 431.711433 
L 158.734761 391.650228 
L 160.488096 430.994811 
L 162.240138 430.586264 
L 163.991942 404.309502 
L 165.752877 429.695935 
L 167.506198 420.906797 
L 169.259191 414.964596 
L 171.013948 419.521949 
L 172.765602 428.035347 
L 174.520992 431.597855 
L 176.273998 431.687468 
L 178.026744 427.532809 
L 179.778444 404.577161 
L 181.540828 431.173265 
L 183.292304 430.860083 
L 185.043569 429.767279 
L 186.792693 430.940636 
L 188.543537 431.631973 
L 190.294648 430.078626 
L 192.048013 429.969629 
L 193.799513 431.388515 
L 195.551449 429.12156 
L 197.311717 417.254534 
L 199.063473 429.574617 
L 200.81534 429.569363 
L 202.569926 430.32888 
L 204.323222 428.026314 
L 206.076123 430.280656 
L 207.829658 421.14725 
L 209.588286 429.62428 
L 211.341283 427.420203 
L 213.093067 406.590933 
L 214.844074 430.82817 
L 216.602323 421.185606 
L 218.358679 431.478325 
L 220.108317 427.776211 
L 221.865538 427.784864 
L 223.615819 418.432628 
L 225.374984 431.857725 
L 227.125688 399.292811 
L 228.876723 430.783127 
L 230.634991 422.73287 
L 232.38562 428.144425 
L 234.140937 432.042382 
L 235.89728 422.435633 
L 237.653618 431.225032 
L 239.408331 423.609251 
L 241.158932 426.322965 
L 242.912789 427.804016 
L 244.668683 430.013561 
L 246.423289 431.568672 
L 248.183659 425.963078 
L 249.954365 423.822851 
L 251.705785 431.267515 
L 253.465545 429.433515 
L 255.237793 429.759235 
L 256.995647 428.956576 
L 258.76348 422.23724 
L 260.529235 425.958996 
L 262.292538 405.617257 
L 264.054346 389.242787 
L 265.816831 430.034101 
L 267.571412 424.560406 
L 269.32924 430.660646 
L 271.081479 425.866806 
L 272.842044 430.145444 
L 274.594701 431.245507 
L 276.344785 389.151656 
L 278.098072 430.903095 
L 279.850384 426.78915 
L 281.603831 430.474156 
L 283.355488 431.156511 
L 285.111522 429.790934 
L 286.86414 406.390928 
L 288.621779 429.738423 
L 290.369901 429.884566 
L 292.122907 403.952616 
L 293.875743 430.268731 
L 295.633705 419.141178 
L 297.387924 431.069336 
L 299.141632 423.100442 
L 300.893939 417.922356 
L 302.646508 416.124112 
L 304.399922 417.092742 
L 306.15546 420.635487 
L 307.90832 431.687239 
L 309.661064 422.117163 
L 311.418214 431.00426 
L 313.169532 427.63058 
L 314.924265 423.467166 
L 316.678243 421.714403 
L 318.439618 418.193546 
L 320.192367 425.75464 
L 321.947632 395.107921 
L 323.702915 430.053888 
L 325.461708 430.932084 
L 327.21432 428.853269 
L 328.96629 421.682297 
L 330.72885 431.972571 
L 334.234219 430.701037 
L 335.99192 430.546356 
L 337.753254 414.046972 
L 339.504328 432.020428 
L 341.258919 426.000223 
L 343.019429 425.686888 
L 344.776381 415.095744 
L 346.535207 426.228481 
L 348.298936 409.532539 
L 350.057175 426.358458 
L 351.817992 425.73908 
L 353.583049 428.722003 
L 355.342712 373.899206 
L 357.11743 430.943127 
L 358.875889 423.394027 
L 360.653659 423.386547 
L 362.419535 415.967072 
L 364.176708 420.637876 
L 365.937425 431.600846 
L 367.698578 421.977511 
L 369.459336 431.081941 
L 371.221877 420.626962 
L 372.980877 431.721592 
L 374.82038 430.971375 
L 376.624753 427.716244 
L 378.378324 401.975354 
L 380.129923 422.583637 
L 381.883371 431.198699 
L 383.635756 424.639049 
L 385.385156 423.191028 
L 387.140341 400.826738 
L 388.893885 431.064352 
L 390.651709 427.229121 
L 392.404018 431.218345 
L 394.155682 412.623767 
L 395.908153 425.446743 
L 397.660225 426.210002 
L 399.416881 431.09529 
L 401.169858 430.190727 
L 402.922859 431.714678 
L 404.675344 428.048879 
L 406.429554 426.654839 
L 408.181341 424.202067 
L 409.933797 428.788038 
L 411.691176 419.396576 
L 413.442945 430.093025 
L 415.195333 431.592392 
L 416.947765 421.649867 
L 418.699195 430.053376 
L 420.451881 432.05459 
L 422.204887 422.464049 
L 423.957341 427.800172 
L 425.715356 403.92949 
L 427.470044 429.709768 
L 429.223785 399.082796 
L 430.976168 430.171788 
L 432.727305 430.78001 
L 434.480356 405.33962 
L 436.23303 431.200663 
L 437.995893 412.6452 
L 439.748659 430.876499 
L 441.501247 418.758343 
L 443.253493 423.568022 
L 445.006986 432.005625 
L 446.759045 431.605466 
L 448.512126 412.153315 
L 450.280223 403.011314 
L 452.033766 431.608142 
L 453.788012 356.827008 
L 455.539754 425.99859 
L 459.049387 430.247717 
L 460.806159 426.209996 
L 462.561159 416.694067 
L 464.321675 429.129934 
L 466.076053 393.455838 
L 467.84103 426.576492 
L 469.593122 431.201151 
L 471.350925 414.662052 
L 473.116173 427.956389 
L 476.651513 424.530636 
L 478.430985 415.096888 
L 480.204438 429.328826 
L 481.985502 430.109169 
L 483.753652 426.478731 
L 485.506058 415.670326 
L 487.258086 397.533992 
L 489.010077 391.908579 
L 490.763398 428.128849 
L 492.515809 420.500201 
L 494.268503 410.660482 
L 496.020978 431.231364 
L 497.772718 411.148097 
L 499.523618 423.960242 
L 501.288055 382.597229 
L 503.046177 404.609878 
L 504.793971 421.425062 
L 506.544975 418.42427 
L 508.294921 431.191272 
L 510.047144 428.192154 
L 511.800317 415.699039 
L 513.583802 431.541718 
L 515.344532 428.624641 
L 517.094668 431.287549 
L 518.846869 426.20398 
L 520.596204 431.298591 
L 522.348024 407.1629 
L 524.103033 431.551743 
L 525.859984 431.457552 
L 527.61016 418.949384 
L 529.362268 431.354101 
L 531.111822 422.277357 
L 532.870613 432.10157 
L 534.620006 429.831985 
L 536.370867 409.566163 
L 538.121786 431.828859 
L 539.885951 423.482322 
L 541.644128 430.404831 
L 543.393537 424.702741 
L 545.143075 426.350046 
L 546.893254 397.550857 
L 548.64308 411.056846 
L 550.398908 421.173201 
L 552.1559 422.166657 
L 553.905731 430.548093 
L 555.667308 428.309826 
L 557.431908 431.604235 
L 559.20035 419.27836 
L 560.962812 431.219896 
L 562.723893 420.886088 
L 564.489469 423.222943 
L 566.249024 427.315183 
L 568.008884 421.228083 
L 569.769883 431.306828 
L 571.530767 432.184263 
L 573.300074 429.70141 
L 575.065619 431.619136 
L 576.832979 431.673044 
L 578.598028 420.635369 
L 580.361579 431.424677 
L 582.124993 430.900706 
L 585.649715 420.408916 
L 587.412798 430.881516 
L 589.183684 421.886084 
L 590.952167 410.902082 
L 592.726777 418.012704 
L 594.492867 396.680257 
L 596.253775 430.420116 
L 598.014071 429.266229 
L 599.772421 409.443773 
L 601.535692 429.759457 
L 603.294349 412.525941 
L 605.055361 401.717785 
L 606.816606 394.733694 
L 608.578875 428.819829 
L 610.344086 430.121998 
L 612.099477 407.93327 
L 613.859648 428.560515 
L 615.6236 420.784801 
L 617.382434 395.313013 
L 619.129271 418.437689 
L 620.879892 427.931776 
L 622.630203 392.556444 
L 624.387731 428.484921 
L 626.135414 426.671805 
L 627.902574 424.559665 
L 629.670954 429.685924 
L 631.503294 431.37358 
L 633.346369 429.576366 
L 635.193521 431.896702 
L 637.034644 431.667754 
L 638.879735 429.675845 
L 640.63628 430.066269 
L 642.366157 431.876075 
L 644.093662 431.069183 
L 645.814484 431.797184 
L 647.541818 397.710921 
L 647.541818 397.710921 
" style="fill:none;stroke:#1f77b4;stroke-linecap:square;stroke-width:2.275;"/>
   </g>
   <g id="line2d_21">
    <path clip-path="url(#pde3ec7ab0e)" d="M 119.978182 337.501387 
L 125.167868 85.236695 
L 130.11662 127.118884 
L 135.069797 79.443 
L 140.027851 282.815066 
L 144.993166 327.268222 
L 149.954443 174.190613 
L 154.917694 305.585144 
L 159.876808 378.026606 
L 164.837409 377.506087 
L 169.803433 270.064114 
L 174.768192 341.043847 
L 179.728392 368.930708 
L 184.686134 303.478628 
L 189.649945 358.245418 
L 194.609103 416.49223 
L 199.628718 388.586917 
L 204.605301 395.614889 
L 209.566204 368.729821 
L 214.526014 398.330285 
L 219.488717 416.78584 
L 224.448907 421.70869 
L 229.408939 417.410044 
L 234.375822 417.277577 
L 239.337946 429.073095 
L 244.331224 429.681774 
L 249.294383 418.31993 
L 254.250819 419.735328 
L 259.210064 429.207917 
L 264.174923 409.094664 
L 269.131751 425.624141 
L 274.094598 420.258658 
L 279.134574 428.64056 
L 284.094034 425.86388 
L 289.05574 431.987084 
L 294.02023 430.60626 
L 298.979179 416.620378 
L 303.942299 426.942333 
L 308.949864 432.012147 
L 313.921819 414.279206 
L 318.874219 424.999274 
L 323.82891 430.813487 
L 328.782553 430.991564 
L 333.730685 428.689295 
L 338.682117 432.348787 
L 343.634684 431.124595 
L 348.586186 432.186987 
L 353.564075 421.966866 
L 358.541331 432.497456 
L 363.512055 427.346511 
L 368.464619 430.767474 
L 373.419843 432.075809 
L 378.368837 423.341125 
L 383.321615 432.571878 
L 388.273465 432.551742 
L 393.226216 432.553623 
L 398.178751 425.750907 
L 403.133931 432.526542 
L 408.081724 425.60662 
L 413.031427 432.398155 
L 417.987423 429.993028 
L 422.936594 431.543022 
L 427.884606 426.950741 
L 432.903409 428.485872 
L 437.865161 429.931476 
L 442.81634 429.672263 
L 447.767929 430.684691 
L 452.721563 432.311039 
L 457.670912 427.784509 
L 462.621073 431.556232 
L 467.57438 432.08192 
L 472.5247 432.728667 
L 477.473904 431.132486 
L 482.428323 431.997214 
L 487.381369 432.044522 
L 492.330263 429.237584 
L 497.28315 432.55099 
L 502.233569 431.414676 
L 507.187865 431.442853 
L 512.217496 427.645972 
L 517.167324 432.647405 
L 522.118159 432.772659 
L 527.073425 430.882249 
L 532.022373 427.936298 
L 536.975473 428.842766 
L 541.946454 430.621967 
L 546.90519 432.564034 
L 551.858569 428.730232 
L 556.808507 432.719821 
L 561.759378 432.433597 
L 566.713832 430.643686 
L 571.664385 432.753947 
L 576.619064 432.737164 
L 581.565205 432.670578 
L 586.574441 432.783 
L 591.543589 428.601412 
L 596.497197 432.745028 
L 601.448407 432.426099 
L 606.402872 432.499364 
L 611.352562 432.663334 
L 616.303061 430.253596 
" style="fill:none;stroke:#ff7f0e;stroke-linecap:square;stroke-width:2.275;"/>
   </g>
   <g id="patch_3">
    <path d="M 93.6 450.45 
L 93.6 61.776 
" style="fill:none;stroke:#000000;stroke-linecap:square;stroke-linejoin:miter;stroke-width:0.8;"/>
   </g>
   <g id="patch_4">
    <path d="M 673.92 450.45 
L 673.92 61.776 
" style="fill:none;stroke:#000000;stroke-linecap:square;stroke-linejoin:miter;stroke-width:0.8;"/>
   </g>
   <g id="patch_5">
    <path d="M 93.6 450.45 
L 673.92 450.45 
" style="fill:none;stroke:#000000;stroke-linecap:square;stroke-linejoin:miter;stroke-width:0.8;"/>
   </g>
   <g id="patch_6">
    <path d="M 93.6 61.776 
L 673.92 61.776 
" style="fill:none;stroke:#000000;stroke-linecap:square;stroke-linejoin:miter;stroke-width:0.8;"/>
   </g>
   <g id="text_13">
    <!-- Evolution of loss - SDCA : 300 epochs - Pegasos : 100 epochs -->
    <defs>
     <path d="M 9.8125 72.90625 
L 55.90625 72.90625 
L 55.90625 64.59375 
L 19.671875 64.59375 
L 19.671875 43.015625 
L 54.390625 43.015625 
L 54.390625 34.71875 
L 19.671875 34.71875 
L 19.671875 8.296875 
L 56.78125 8.296875 
L 56.78125 0 
L 9.8125 0 
z
" id="DejaVuSans-45"/>
     <path d="M 2.984375 54.6875 
L 12.5 54.6875 
L 29.59375 8.796875 
L 46.6875 54.6875 
L 56.203125 54.6875 
L 35.6875 0 
L 23.484375 0 
z
" id="DejaVuSans-76"/>
     <path d="M 8.5 21.578125 
L 8.5 54.6875 
L 17.484375 54.6875 
L 17.484375 21.921875 
Q 17.484375 14.15625 20.5 10.265625 
Q 23.53125 6.390625 29.59375 6.390625 
Q 36.859375 6.390625 41.078125 11.03125 
Q 45.3125 15.671875 45.3125 23.6875 
L 45.3125 54.6875 
L 54.296875 54.6875 
L 54.296875 0 
L 45.3125 0 
L 45.3125 8.40625 
Q 42.046875 3.421875 37.71875 1 
Q 33.40625 -1.421875 27.6875 -1.421875 
Q 18.265625 -1.421875 13.375 4.4375 
Q 8.5 10.296875 8.5 21.578125 
z
M 31.109375 56 
z
" id="DejaVuSans-75"/>
     <path d="M 54.890625 33.015625 
L 54.890625 0 
L 45.90625 0 
L 45.90625 32.71875 
Q 45.90625 40.484375 42.875 44.328125 
Q 39.84375 48.1875 33.796875 48.1875 
Q 26.515625 48.1875 22.3125 43.546875 
Q 18.109375 38.921875 18.109375 30.90625 
L 18.109375 0 
L 9.078125 0 
L 9.078125 54.6875 
L 18.109375 54.6875 
L 18.109375 46.1875 
Q 21.34375 51.125 25.703125 53.5625 
Q 30.078125 56 35.796875 56 
Q 45.21875 56 50.046875 50.171875 
Q 54.890625 44.34375 54.890625 33.015625 
z
" id="DejaVuSans-6e"/>
     <path d="M 37.109375 75.984375 
L 37.109375 68.5 
L 28.515625 68.5 
Q 23.6875 68.5 21.796875 66.546875 
Q 19.921875 64.59375 19.921875 59.515625 
L 19.921875 54.6875 
L 34.71875 54.6875 
L 34.71875 47.703125 
L 19.921875 47.703125 
L 19.921875 0 
L 10.890625 0 
L 10.890625 47.703125 
L 2.296875 47.703125 
L 2.296875 54.6875 
L 10.890625 54.6875 
L 10.890625 58.5 
Q 10.890625 67.625 15.140625 71.796875 
Q 19.390625 75.984375 28.609375 75.984375 
z
" id="DejaVuSans-66"/>
     <path d="M 4.890625 31.390625 
L 31.203125 31.390625 
L 31.203125 23.390625 
L 4.890625 23.390625 
z
" id="DejaVuSans-2d"/>
     <path d="M 53.515625 70.515625 
L 53.515625 60.890625 
Q 47.90625 63.578125 42.921875 64.890625 
Q 37.9375 66.21875 33.296875 66.21875 
Q 25.25 66.21875 20.875 63.09375 
Q 16.5 59.96875 16.5 54.203125 
Q 16.5 49.359375 19.40625 46.890625 
Q 22.3125 44.4375 30.421875 42.921875 
L 36.375 41.703125 
Q 47.40625 39.59375 52.65625 34.296875 
Q 57.90625 29 57.90625 20.125 
Q 57.90625 9.515625 50.796875 4.046875 
Q 43.703125 -1.421875 29.984375 -1.421875 
Q 24.8125 -1.421875 18.96875 -0.25 
Q 13.140625 0.921875 6.890625 3.21875 
L 6.890625 13.375 
Q 12.890625 10.015625 18.65625 8.296875 
Q 24.421875 6.59375 29.984375 6.59375 
Q 38.421875 6.59375 43.015625 9.90625 
Q 47.609375 13.234375 47.609375 19.390625 
Q 47.609375 24.75 44.3125 27.78125 
Q 41.015625 30.8125 33.5 32.328125 
L 27.484375 33.5 
Q 16.453125 35.6875 11.515625 40.375 
Q 6.59375 45.0625 6.59375 53.421875 
Q 6.59375 63.09375 13.40625 68.65625 
Q 20.21875 74.21875 32.171875 74.21875 
Q 37.3125 74.21875 42.625 73.28125 
Q 47.953125 72.359375 53.515625 70.515625 
z
" id="DejaVuSans-53"/>
     <path d="M 19.671875 64.796875 
L 19.671875 8.109375 
L 31.59375 8.109375 
Q 46.6875 8.109375 53.6875 14.9375 
Q 60.6875 21.78125 60.6875 36.53125 
Q 60.6875 51.171875 53.6875 57.984375 
Q 46.6875 64.796875 31.59375 64.796875 
z
M 9.8125 72.90625 
L 30.078125 72.90625 
Q 51.265625 72.90625 61.171875 64.09375 
Q 71.09375 55.28125 71.09375 36.53125 
Q 71.09375 17.671875 61.125 8.828125 
Q 51.171875 0 30.078125 0 
L 9.8125 0 
z
" id="DejaVuSans-44"/>
     <path d="M 34.1875 63.1875 
L 20.796875 26.90625 
L 47.609375 26.90625 
z
M 28.609375 72.90625 
L 39.796875 72.90625 
L 67.578125 0 
L 57.328125 0 
L 50.6875 18.703125 
L 17.828125 18.703125 
L 11.1875 0 
L 0.78125 0 
z
" id="DejaVuSans-41"/>
     <path d="M 11.71875 12.40625 
L 22.015625 12.40625 
L 22.015625 0 
L 11.71875 0 
z
M 11.71875 51.703125 
L 22.015625 51.703125 
L 22.015625 39.3125 
L 11.71875 39.3125 
z
" id="DejaVuSans-3a"/>
     <path d="M 18.109375 8.203125 
L 18.109375 -20.796875 
L 9.078125 -20.796875 
L 9.078125 54.6875 
L 18.109375 54.6875 
L 18.109375 46.390625 
Q 20.953125 51.265625 25.265625 53.625 
Q 29.59375 56 35.59375 56 
Q 45.5625 56 51.78125 48.09375 
Q 58.015625 40.1875 58.015625 27.296875 
Q 58.015625 14.40625 51.78125 6.484375 
Q 45.5625 -1.421875 35.59375 -1.421875 
Q 29.59375 -1.421875 25.265625 0.953125 
Q 20.953125 3.328125 18.109375 8.203125 
z
M 48.6875 27.296875 
Q 48.6875 37.203125 44.609375 42.84375 
Q 40.53125 48.484375 33.40625 48.484375 
Q 26.265625 48.484375 22.1875 42.84375 
Q 18.109375 37.203125 18.109375 27.296875 
Q 18.109375 17.390625 22.1875 11.75 
Q 26.265625 6.109375 33.40625 6.109375 
Q 40.53125 6.109375 44.609375 11.75 
Q 48.6875 17.390625 48.6875 27.296875 
z
" id="DejaVuSans-70"/>
     <path d="M 48.78125 52.59375 
L 48.78125 44.1875 
Q 44.96875 46.296875 41.140625 47.34375 
Q 37.3125 48.390625 33.40625 48.390625 
Q 24.65625 48.390625 19.8125 42.84375 
Q 14.984375 37.3125 14.984375 27.296875 
Q 14.984375 17.28125 19.8125 11.734375 
Q 24.65625 6.203125 33.40625 6.203125 
Q 37.3125 6.203125 41.140625 7.25 
Q 44.96875 8.296875 48.78125 10.40625 
L 48.78125 2.09375 
Q 45.015625 0.34375 40.984375 -0.53125 
Q 36.96875 -1.421875 32.421875 -1.421875 
Q 20.0625 -1.421875 12.78125 6.34375 
Q 5.515625 14.109375 5.515625 27.296875 
Q 5.515625 40.671875 12.859375 48.328125 
Q 20.21875 56 33.015625 56 
Q 37.15625 56 41.109375 55.140625 
Q 45.0625 54.296875 48.78125 52.59375 
z
" id="DejaVuSans-63"/>
     <path d="M 54.890625 33.015625 
L 54.890625 0 
L 45.90625 0 
L 45.90625 32.71875 
Q 45.90625 40.484375 42.875 44.328125 
Q 39.84375 48.1875 33.796875 48.1875 
Q 26.515625 48.1875 22.3125 43.546875 
Q 18.109375 38.921875 18.109375 30.90625 
L 18.109375 0 
L 9.078125 0 
L 9.078125 75.984375 
L 18.109375 75.984375 
L 18.109375 46.1875 
Q 21.34375 51.125 25.703125 53.5625 
Q 30.078125 56 35.796875 56 
Q 45.21875 56 50.046875 50.171875 
Q 54.890625 44.34375 54.890625 33.015625 
z
" id="DejaVuSans-68"/>
     <path d="M 34.28125 27.484375 
Q 23.390625 27.484375 19.1875 25 
Q 14.984375 22.515625 14.984375 16.5 
Q 14.984375 11.71875 18.140625 8.90625 
Q 21.296875 6.109375 26.703125 6.109375 
Q 34.1875 6.109375 38.703125 11.40625 
Q 43.21875 16.703125 43.21875 25.484375 
L 43.21875 27.484375 
z
M 52.203125 31.203125 
L 52.203125 0 
L 43.21875 0 
L 43.21875 8.296875 
Q 40.140625 3.328125 35.546875 0.953125 
Q 30.953125 -1.421875 24.3125 -1.421875 
Q 15.921875 -1.421875 10.953125 3.296875 
Q 6 8.015625 6 15.921875 
Q 6 25.140625 12.171875 29.828125 
Q 18.359375 34.515625 30.609375 34.515625 
L 43.21875 34.515625 
L 43.21875 35.40625 
Q 43.21875 41.609375 39.140625 45 
Q 35.0625 48.390625 27.6875 48.390625 
Q 23 48.390625 18.546875 47.265625 
Q 14.109375 46.140625 10.015625 43.890625 
L 10.015625 52.203125 
Q 14.9375 54.109375 19.578125 55.046875 
Q 24.21875 56 28.609375 56 
Q 40.484375 56 46.34375 49.84375 
Q 52.203125 43.703125 52.203125 31.203125 
z
" id="DejaVuSans-61"/>
    </defs>
    <g transform="translate(144.891094 55.776)scale(0.156 -0.156)">
     <use xlink:href="#DejaVuSans-45"/>
     <use x="63.183594" xlink:href="#DejaVuSans-76"/>
     <use x="122.363281" xlink:href="#DejaVuSans-6f"/>
     <use x="183.544922" xlink:href="#DejaVuSans-6c"/>
     <use x="211.328125" xlink:href="#DejaVuSans-75"/>
     <use x="274.707031" xlink:href="#DejaVuSans-74"/>
     <use x="313.916016" xlink:href="#DejaVuSans-69"/>
     <use x="341.699219" xlink:href="#DejaVuSans-6f"/>
     <use x="402.880859" xlink:href="#DejaVuSans-6e"/>
     <use x="466.259766" xlink:href="#DejaVuSans-20"/>
     <use x="498.046875" xlink:href="#DejaVuSans-6f"/>
     <use x="559.228516" xlink:href="#DejaVuSans-66"/>
     <use x="594.433594" xlink:href="#DejaVuSans-20"/>
     <use x="626.220703" xlink:href="#DejaVuSans-6c"/>
     <use x="654.003906" xlink:href="#DejaVuSans-6f"/>
     <use x="715.185547" xlink:href="#DejaVuSans-73"/>
     <use x="767.285156" xlink:href="#DejaVuSans-73"/>
     <use x="819.384766" xlink:href="#DejaVuSans-20"/>
     <use x="851.171875" xlink:href="#DejaVuSans-2d"/>
     <use x="887.255859" xlink:href="#DejaVuSans-20"/>
     <use x="919.042969" xlink:href="#DejaVuSans-53"/>
     <use x="982.519531" xlink:href="#DejaVuSans-44"/>
     <use x="1059.521484" xlink:href="#DejaVuSans-43"/>
     <use x="1129.345703" xlink:href="#DejaVuSans-41"/>
     <use x="1197.753906" xlink:href="#DejaVuSans-20"/>
     <use x="1229.541016" xlink:href="#DejaVuSans-3a"/>
     <use x="1263.232422" xlink:href="#DejaVuSans-20"/>
     <use x="1295.019531" xlink:href="#DejaVuSans-33"/>
     <use x="1358.642578" xlink:href="#DejaVuSans-30"/>
     <use x="1422.265625" xlink:href="#DejaVuSans-30"/>
     <use x="1485.888672" xlink:href="#DejaVuSans-20"/>
     <use x="1517.675781" xlink:href="#DejaVuSans-65"/>
     <use x="1579.199219" xlink:href="#DejaVuSans-70"/>
     <use x="1642.675781" xlink:href="#DejaVuSans-6f"/>
     <use x="1703.857422" xlink:href="#DejaVuSans-63"/>
     <use x="1758.837891" xlink:href="#DejaVuSans-68"/>
     <use x="1822.216797" xlink:href="#DejaVuSans-73"/>
     <use x="1874.316406" xlink:href="#DejaVuSans-20"/>
     <use x="1906.103516" xlink:href="#DejaVuSans-2d"/>
     <use x="1942.1875" xlink:href="#DejaVuSans-20"/>
     <use x="1973.974609" xlink:href="#DejaVuSans-50"/>
     <use x="2034.230469" xlink:href="#DejaVuSans-65"/>
     <use x="2095.753906" xlink:href="#DejaVuSans-67"/>
     <use x="2159.230469" xlink:href="#DejaVuSans-61"/>
     <use x="2220.509766" xlink:href="#DejaVuSans-73"/>
     <use x="2272.609375" xlink:href="#DejaVuSans-6f"/>
     <use x="2333.791016" xlink:href="#DejaVuSans-73"/>
     <use x="2385.890625" xlink:href="#DejaVuSans-20"/>
     <use x="2417.677734" xlink:href="#DejaVuSans-3a"/>
     <use x="2451.369141" xlink:href="#DejaVuSans-20"/>
     <use x="2483.15625" xlink:href="#DejaVuSans-31"/>
     <use x="2546.779297" xlink:href="#DejaVuSans-30"/>
     <use x="2610.402344" xlink:href="#DejaVuSans-30"/>
     <use x="2674.025391" xlink:href="#DejaVuSans-20"/>
     <use x="2705.8125" xlink:href="#DejaVuSans-65"/>
     <use x="2767.335938" xlink:href="#DejaVuSans-70"/>
     <use x="2830.8125" xlink:href="#DejaVuSans-6f"/>
     <use x="2891.994141" xlink:href="#DejaVuSans-63"/>
     <use x="2946.974609" xlink:href="#DejaVuSans-68"/>
     <use x="3010.353516" xlink:href="#DejaVuSans-73"/>
    </g>
   </g>
   <g id="legend_1">
    <g id="patch_7">
     <path d="M 569.670156 110.339125 
L 664.82 110.339125 
Q 667.42 110.339125 667.42 107.739125 
L 667.42 70.876 
Q 667.42 68.276 664.82 68.276 
L 569.670156 68.276 
Q 567.070156 68.276 567.070156 70.876 
L 567.070156 107.739125 
Q 567.070156 110.339125 569.670156 110.339125 
z
" style="fill:#ffffff;opacity:0.8;stroke:#cccccc;stroke-linejoin:miter;stroke-width:0.39;"/>
    </g>
    <g id="line2d_22">
     <path d="M 572.270156 78.803969 
L 598.270156 78.803969 
" style="fill:none;stroke:#1f77b4;stroke-linecap:square;stroke-width:2.275;"/>
    </g>
    <g id="line2d_23"/>
    <g id="text_14">
     <!-- SDCA -->
     <g transform="translate(608.670156 83.353969)scale(0.13 -0.13)">
      <use xlink:href="#DejaVuSans-53"/>
      <use x="63.476562" xlink:href="#DejaVuSans-44"/>
      <use x="140.478516" xlink:href="#DejaVuSans-43"/>
      <use x="210.302734" xlink:href="#DejaVuSans-41"/>
     </g>
    </g>
    <g id="line2d_24">
     <path d="M 572.270156 97.885531 
L 598.270156 97.885531 
" style="fill:none;stroke:#ff7f0e;stroke-linecap:square;stroke-width:2.275;"/>
    </g>
    <g id="line2d_25"/>
    <g id="text_15">
     <!-- Pegasos -->
     <g transform="translate(608.670156 102.435531)scale(0.13 -0.13)">
      <use xlink:href="#DejaVuSans-50"/>
      <use x="60.255859" xlink:href="#DejaVuSans-65"/>
      <use x="121.779297" xlink:href="#DejaVuSans-67"/>
      <use x="185.255859" xlink:href="#DejaVuSans-61"/>
      <use x="246.535156" xlink:href="#DejaVuSans-73"/>
      <use x="298.634766" xlink:href="#DejaVuSans-6f"/>
      <use x="359.816406" xlink:href="#DejaVuSans-73"/>
     </g>
    </g>
   </g>
  </g>
 </g>
 <defs>
  <clipPath id="pde3ec7ab0e">
   <rect height="388.674" width="580.32" x="93.6" y="61.776"/>
  </clipPath>
 </defs>
</svg>
